<svg xmlns="http://www.w3.org/2000/svg" viewBox="0 0 1280 800" font-family="ui-monospace, monospace">
  <rect width="1280" height="800" fill="#0a0e14"/>
  <g stroke="#e6edf3" stroke-opacity="0.04">
    <path d="M0 100H1280M0 200H1280M0 300H1280M0 400H1280M0 500H1280M0 600H1280M0 700H1280"/>
    <path d="M160 0V800M320 0V800M480 0V800M640 0V800M800 0V800M960 0V800M1120 0V800"/>
  </g>
  <defs>
    <marker id="arr" viewBox="0 0 10 10" refX="9" refY="5" markerWidth="7" markerHeight="7" orient="auto-start-reverse">
      <path d="M0 0L10 5L0 10z" fill="#22d3ee"/>
    </marker>
  </defs>
  <!-- nodes -->
  <g>
    <rect x="80" y="320" width="200" height="110" rx="10" fill="#0e141d" stroke="#22d3ee" stroke-opacity="0.55"/>
    <text x="180" y="368" fill="#e6edf3" font-size="18" text-anchor="middle">client</text>
    <text x="180" y="396" fill="#8b98a9" font-size="12" text-anchor="middle">next.js</text>

    <rect x="420" y="320" width="200" height="110" rx="10" fill="#0e141d" stroke="#22d3ee" stroke-opacity="0.55"/>
    <text x="520" y="368" fill="#e6edf3" font-size="18" text-anchor="middle">gateway</text>
    <text x="520" y="396" fill="#8b98a9" font-size="12" text-anchor="middle">fastapi</text>

    <rect x="760" y="150" width="200" height="110" rx="10" fill="#0e141d" stroke="#8b5cf6" stroke-opacity="0.6"/>
    <text x="860" y="198" fill="#e6edf3" font-size="18" text-anchor="middle">vector index</text>
    <text x="860" y="226" fill="#8b98a9" font-size="12" text-anchor="middle">pinecone</text>

    <rect x="760" y="320" width="200" height="110" rx="10" fill="#0e141d" stroke="#34d399" stroke-opacity="0.6"/>
    <text x="860" y="368" fill="#e6edf3" font-size="18" text-anchor="middle">control plane</text>
    <text x="860" y="396" fill="#8b98a9" font-size="12" text-anchor="middle">k8s · rancher</text>

    <rect x="760" y="490" width="200" height="110" rx="10" fill="#0e141d" stroke="#f59e0b" stroke-opacity="0.6"/>
    <text x="860" y="538" fill="#e6edf3" font-size="18" text-anchor="middle">data</text>
    <text x="860" y="566" fill="#8b98a9" font-size="12" text-anchor="middle">postgres · s3</text>

    <rect x="1080" y="320" width="140" height="110" rx="10" fill="#0e141d" stroke="#e6edf3" stroke-opacity="0.25"/>
    <text x="1150" y="368" fill="#e6edf3" font-size="18" text-anchor="middle">15+</text>
    <text x="1150" y="396" fill="#8b98a9" font-size="12" text-anchor="middle">environments</text>
  </g>
  <!-- edges -->
  <g stroke="#22d3ee" stroke-width="2" stroke-opacity="0.6" fill="none" marker-end="url(#arr)">
    <path d="M280 375H412"/>
    <path d="M620 360C690 330 690 240 752 212"/>
    <path d="M620 375H752"/>
    <path d="M620 390C690 420 690 510 752 538"/>
    <path d="M960 375H1072"/>
  </g>
  <text x="640" y="760" fill="#8b98a9" font-size="13" text-anchor="middle" opacity="0.7">PLACEHOLDER · replace with the real architecture diagram (public/media/)</text>
</svg>
