<svg xmlns="http://www.w3.org/2000/svg" viewBox="0 0 1280 800" font-family="ui-monospace, monospace">
  <rect width="1280" height="800" fill="#0a0e14"/>
  <g stroke="#e6edf3" stroke-opacity="0.05">
    <path d="M0 100H1280M0 200H1280M0 300H1280M0 400H1280M0 500H1280M0 600H1280M0 700H1280"/>
    <path d="M160 0V800M320 0V800M480 0V800M640 0V800M800 0V800M960 0V800M1120 0V800"/>
  </g>
  <!-- sidebar -->
  <rect x="40" y="40" width="240" height="720" rx="8" fill="#0e141d" stroke="#e6edf3" stroke-opacity="0.08"/>
  <rect x="64" y="76" width="140" height="10" rx="3" fill="#22d3ee" opacity="0.8"/>
  <g fill="#8b98a9" opacity="0.55">
    <rect x="64" y="120" width="180" height="8" rx="3"/>
    <rect x="64" y="148" width="150" height="8" rx="3"/>
    <rect x="64" y="176" width="170" height="8" rx="3"/>
    <rect x="64" y="204" width="120" height="8" rx="3"/>
  </g>
  <!-- stat cards -->
  <g>
    <rect x="312" y="40" width="290" height="140" rx="8" fill="#0e141d" stroke="#e6edf3" stroke-opacity="0.08"/>
    <rect x="618" y="40" width="290" height="140" rx="8" fill="#0e141d" stroke="#e6edf3" stroke-opacity="0.08"/>
    <rect x="924" y="40" width="316" height="140" rx="8" fill="#0e141d" stroke="#e6edf3" stroke-opacity="0.08"/>
    <text x="336" y="100" fill="#22d3ee" font-size="34">99.9%</text>
    <text x="642" y="100" fill="#8b5cf6" font-size="34">15+</text>
    <text x="948" y="100" fill="#f59e0b" font-size="34">&lt;200ms</text>
    <text x="336" y="140" fill="#8b98a9" font-size="14">uptime</text>
    <text x="642" y="140" fill="#8b98a9" font-size="14">environments</text>
    <text x="948" y="140" fill="#8b98a9" font-size="14">p95 latency</text>
  </g>
  <!-- chart -->
  <rect x="312" y="212" width="928" height="360" rx="8" fill="#0e141d" stroke="#e6edf3" stroke-opacity="0.08"/>
  <polyline points="352,520 440,470 530,492 620,420 710,440 800,360 890,388 980,310 1070,330 1160,270"
    fill="none" stroke="#22d3ee" stroke-width="3" stroke-linecap="round" stroke-linejoin="round"/>
  <polyline points="352,540 440,535 530,510 620,512 710,480 800,486 890,450 980,452 1070,420 1160,415"
    fill="none" stroke="#8b5cf6" stroke-width="2" opacity="0.7" stroke-linecap="round" stroke-linejoin="round"/>
  <!-- table rows -->
  <g fill="#8b98a9" opacity="0.5">
    <rect x="312" y="612" width="928" height="36" rx="6" fill="#0e141d"/>
    <rect x="312" y="660" width="928" height="36" rx="6" fill="#0e141d"/>
    <rect x="312" y="708" width="928" height="36" rx="6" fill="#0e141d"/>
  </g>
  <g fill="#34d399" font-size="13">
    <text x="336" y="635">● running</text>
    <text x="336" y="683">● running</text>
    <text x="336" y="731">● running</text>
  </g>
  <text x="640" y="780" fill="#8b98a9" font-size="13" text-anchor="middle" opacity="0.7">PLACEHOLDER · replace with a real product capture (public/media/)</text>
</svg>
